{
    "asset" : {
        "generator" : "Khronos glTF Blender I/O v3.2.43",
        "version" : "2.0"
    },
    "scene" : 0,
    "scenes" : [
        {
            "name" : "Scene",
            "nodes" : [
                0,
                1,
                2,
                3,
                4,
                5,
                6
            ]
        }
    ],
    "nodes" : [
        {
            "mesh" : 0,
            "name" : "straw",
            "rotation" : [
                0.14540715515613556,
                0,
                0,
                0.9893718957901001
            ]
        },
        {
            "mesh" : 1,
            "name" : "lemon",
            "scale" : [
                1.4364047050476074,
                1,
                1
            ],
            "translation" : [
                0,
                2.548330068588257,
                -1.040837049484253
            ]
        },
        {
            "mesh" : 2,
            "name" : "liq_2",
            "translation" : [
                0,
                1.519423246383667,
                0
            ]
        },
        {
            "mesh" : 3,
            "name" : "liq_3",
            "translation" : [
                0,
                2.430560350418091,
                0
            ]
        },
        {
            "mesh" : 4,
            "name" : "liq_1",
            "translation" : [
                0,
                0.4149966239929199,
                0
            ]
        },
        {
            "mesh" : 5,
            "name" : "Plane",
            "scale" : [
                89.60343170166016,
                89.60343170166016,
                37.45753860473633
            ],
            "translation" : [
                0,
                -0.6866186857223511,
                0
            ]
        },
        {
            "mesh" : 6,
            "name" : "schirm",
            "translation" : [
                -1.0400207042694092,
                3.5583531856536865,
                -1.0858744382858276
            ]
        }
    ],
    "animations" : [
        {
            "channels" : [
                {
                    "sampler" : 0,
                    "target" : {
                        "node" : 0,
                        "path" : "rotation"
                    }
                },
                {
                    "sampler" : 1,
                    "target" : {
                        "node" : 0,
                        "path" : "translation"
                    }
                }
            ],
            "name" : "Cylinder.001Action",
            "samplers" : [
                {
                    "input" : 27,
                    "interpolation" : "LINEAR",
                    "output" : 28
                },
                {
                    "input" : 27,
                    "interpolation" : "LINEAR",
                    "output" : 29
                }
            ]
        },
        {
            "channels" : [
                {
                    "sampler" : 0,
                    "target" : {
                        "node" : 1,
                        "path" : "rotation"
                    }
                },
                {
                    "sampler" : 1,
                    "target" : {
                        "node" : 1,
                        "path" : "translation"
                    }
                }
            ],
            "name" : "Cylinder.002Action",
            "samplers" : [
                {
                    "input" : 27,
                    "interpolation" : "LINEAR",
                    "output" : 30
                },
                {
                    "input" : 31,
                    "interpolation" : "LINEAR",
                    "output" : 32
                }
            ]
        },
        {
            "channels" : [
                {
                    "sampler" : 0,
                    "target" : {
                        "node" : 6,
                        "path" : "translation"
                    }
                },
                {
                    "sampler" : 1,
                    "target" : {
                        "node" : 6,
                        "path" : "rotation"
                    }
                }
            ],
            "name" : "schirmAction",
            "samplers" : [
                {
                    "input" : 33,
                    "interpolation" : "LINEAR",
                    "output" : 34
                },
                {
                    "input" : 33,
                    "interpolation" : "LINEAR",
                    "output" : 35
                }
            ]
        }
    ],
    "materials" : [
        {
            "doubleSided" : true,
            "emissiveFactor" : [
                1,
                1,
                1
            ],
            "emissiveTexture" : {
                "index" : 0
            },
            "name" : "cocktail_tex",
            "pbrMetallicRoughness" : {
                "baseColorTexture" : {
                    "index" : 1
                },
                "metallicFactor" : 0,
                "roughnessFactor" : 0.13732394576072693
            }
        },
        {
            "doubleSided" : true,
            "emissiveFactor" : [
                1,
                1,
                0.015389998617321266
            ],
            "name" : "orange",
            "pbrMetallicRoughness" : {
                "baseColorFactor" : [
                    0.8000000715255737,
                    0.2832582890987396,
                    0.0025654237251728773,
                    1
                ],
                "metallicFactor" : 0,
                "roughnessFactor" : 0.5
            }
        },
        {
            "emissiveFactor" : [
                0.800000011920929,
                0.03654100000858307,
                0.028903000056743622
            ],
            "name" : "red",
            "pbrMetallicRoughness" : {
                "baseColorFactor" : [
                    0.8000000715255737,
                    0.03654148802161217,
                    0.028903309255838394,
                    1
                ],
                "metallicFactor" : 0,
                "roughnessFactor" : 0.5
            }
        },
        {
            "doubleSided" : true,
            "emissiveFactor" : [
                0.87111496925354,
                0.9259591102600098,
                0.9792386293411255
            ],
            "name" : "white",
            "pbrMetallicRoughness" : {
                "baseColorFactor" : [
                    0.5604417324066162,
                    0.6912663578987122,
                    0.8000000715255737,
                    1
                ],
                "metallicFactor" : 0,
                "roughnessFactor" : 0.5
            }
        },
        {
            "doubleSided" : true,
            "name" : "blue",
            "pbrMetallicRoughness" : {
                "baseColorFactor" : [
                    0.04399625584483147,
                    0.4170287251472473,
                    0.8000000715255737,
                    0.8999999761581421
                ],
                "metallicFactor" : 0,
                "roughnessFactor" : 0.5
            }
        }
    ],
    "meshes" : [
        {
            "name" : "Cylinder.002",
            "primitives" : [
                {
                    "attributes" : {
                        "POSITION" : 0,
                        "NORMAL" : 1,
                        "TEXCOORD_0" : 2
                    },
                    "indices" : 3,
                    "material" : 0
                }
            ]
        },
        {
            "name" : "Cylinder.003",
            "primitives" : [
                {
                    "attributes" : {
                        "POSITION" : 4,
                        "NORMAL" : 5,
                        "TEXCOORD_0" : 6
                    },
                    "indices" : 7,
                    "material" : 0
                }
            ]
        },
        {
            "name" : "Cylinder.004",
            "primitives" : [
                {
                    "attributes" : {
                        "POSITION" : 8,
                        "NORMAL" : 9,
                        "TEXCOORD_0" : 10
                    },
                    "indices" : 11,
                    "material" : 1
                }
            ]
        },
        {
            "name" : "Cylinder.005",
            "primitives" : [
                {
                    "attributes" : {
                        "POSITION" : 12,
                        "NORMAL" : 13,
                        "TEXCOORD_0" : 14
                    },
                    "indices" : 15,
                    "material" : 2
                }
            ]
        },
        {
            "name" : "Cylinder.006",
            "primitives" : [
                {
                    "attributes" : {
                        "POSITION" : 16,
                        "NORMAL" : 17,
                        "TEXCOORD_0" : 18
                    },
                    "indices" : 11,
                    "material" : 3
                }
            ]
        },
        {
            "name" : "Plane",
            "primitives" : [
                {
                    "attributes" : {
                        "POSITION" : 19,
                        "NORMAL" : 20,
                        "TEXCOORD_0" : 21
                    },
                    "indices" : 22,
                    "material" : 4
                }
            ]
        },
        {
            "name" : "Cylinder.001",
            "primitives" : [
                {
                    "attributes" : {
                        "POSITION" : 23,
                        "NORMAL" : 24,
                        "TEXCOORD_0" : 25
                    },
                    "indices" : 26,
                    "material" : 0
                }
            ]
        }
    ],
    "textures" : [
        {
            "sampler" : 0,
            "source" : 0
        },
        {
            "sampler" : 0,
            "source" : 0
        }
    ],
    "images" : [
        {
            "bufferView" : 4,
            "mimeType" : "image/jpeg",
            "name" : "cocktail_texture"
        }
    ],
    "accessors" : [
        {
            "bufferView" : 0,
            "componentType" : 5126,
            "count" : 184,
            "max" : [
                0.15104542672634125,
                3.805818557739258,
                0.05879497528076172
            ],
            "min" : [
                -0.15104542672634125,
                0.28533732891082764,
                -0.2432958483695984
            ],
            "type" : "VEC3"
        },
        {
            "bufferView" : 1,
            "componentType" : 5126,
            "count" : 184,
            "type" : "VEC3"
        },
        {
            "bufferView" : 2,
            "componentType" : 5126,
            "count" : 184,
            "type" : "VEC2"
        },
        {
            "bufferView" : 3,
            "componentType" : 5123,
            "count" : 288,
            "type" : "SCALAR"
        },
        {
            "bufferView" : 5,
            "componentType" : 5126,
            "count" : 96,
            "max" : [
                0.06700672954320908,
                0.6264774799346924,
                0.626477062702179
            ],
            "min" : [
                -0.06700672954320908,
                -0.6264768838882446,
                -0.626477062702179
            ],
            "type" : "VEC3"
        },
        {
            "bufferView" : 6,
            "componentType" : 5126,
            "count" : 96,
            "type" : "VEC3"
        },
        {
            "bufferView" : 7,
            "componentType" : 5126,
            "count" : 96,
            "type" : "VEC2"
        },
        {
            "bufferView" : 8,
            "componentType" : 5123,
            "count" : 180,
            "type" : "SCALAR"
        },
        {
            "bufferView" : 9,
            "componentType" : 5126,
            "count" : 144,
            "max" : [
                1,
                0.7868996262550354,
                1
            ],
            "min" : [
                -1,
                -0.7868996262550354,
                -1
            ],
            "type" : "VEC3"
        },
        {
            "bufferView" : 10,
            "componentType" : 5126,
            "count" : 144,
            "type" : "VEC3"
        },
        {
            "bufferView" : 11,
            "componentType" : 5126,
            "count" : 144,
            "type" : "VEC2"
        },
        {
            "bufferView" : 12,
            "componentType" : 5123,
            "count" : 276,
            "type" : "SCALAR"
        },
        {
            "bufferView" : 13,
            "componentType" : 5126,
            "count" : 144,
            "max" : [
                1,
                0.12006234377622604,
                1
            ],
            "min" : [
                -1,
                -0.12006234377622604,
                -1
            ],
            "type" : "VEC3"
        },
        {
            "bufferView" : 14,
            "componentType" : 5126,
            "count" : 144,
            "type" : "VEC3"
        },
        {
            "bufferView" : 15,
            "componentType" : 5126,
            "count" : 144,
            "type" : "VEC2"
        },
        {
            "bufferView" : 16,
            "componentType" : 5123,
            "count" : 276,
            "type" : "SCALAR"
        },
        {
            "bufferView" : 17,
            "componentType" : 5126,
            "count" : 144,
            "max" : [
                1,
                0.308836430311203,
                1
            ],
            "min" : [
                -1,
                -0.308836430311203,
                -1
            ],
            "type" : "VEC3"
        },
        {
            "bufferView" : 18,
            "componentType" : 5126,
            "count" : 144,
            "type" : "VEC3"
        },
        {
            "bufferView" : 19,
            "componentType" : 5126,
            "count" : 144,
            "type" : "VEC2"
        },
        {
            "bufferView" : 20,
            "componentType" : 5126,
            "count" : 200,
            "max" : [
                0.1011594831943512,
                0.3006676733493805,
                0.9999999403953552
            ],
            "min" : [
                -0.1721896380186081,
                0,
                -0.9999999403953552
            ],
            "type" : "VEC3"
        },
        {
            "bufferView" : 21,
            "componentType" : 5126,
            "count" : 200,
            "type" : "VEC3"
        },
        {
            "bufferView" : 22,
            "componentType" : 5126,
            "count" : 200,
            "type" : "VEC2"
        },
        {
            "bufferView" : 23,
            "componentType" : 5123,
            "count" : 300,
            "type" : "SCALAR"
        },
        {
            "bufferView" : 24,
            "componentType" : 5126,
            "count" : 144,
            "max" : [
                0.9894697666168213,
                0.25221556425094604,
                0.9866361618041992
            ],
            "min" : [
                -0.7420063614845276,
                -1.8560742139816284,
                -0.7335665225982666
            ],
            "type" : "VEC3"
        },
        {
            "bufferView" : 25,
            "componentType" : 5126,
            "count" : 144,
            "type" : "VEC3"
        },
        {
            "bufferView" : 26,
            "componentType" : 5126,
            "count" : 144,
            "type" : "VEC2"
        },
        {
            "bufferView" : 27,
            "componentType" : 5123,
            "count" : 216,
            "type" : "SCALAR"
        },
        {
            "bufferView" : 28,
            "componentType" : 5126,
            "count" : 100,
            "max" : [
                4.166666666666667
            ],
            "min" : [
                0.041666666666666664
            ],
            "type" : "SCALAR"
        },
        {
            "bufferView" : 29,
            "componentType" : 5126,
            "count" : 100,
            "type" : "VEC4"
        },
        {
            "bufferView" : 30,
            "componentType" : 5126,
            "count" : 100,
            "type" : "VEC3"
        },
        {
            "bufferView" : 31,
            "componentType" : 5126,
            "count" : 100,
            "type" : "VEC4"
        },
        {
            "bufferView" : 32,
            "componentType" : 5126,
            "count" : 41,
            "max" : [
                2.9166666666666665
            ],
            "min" : [
                1.25
            ],
            "type" : "SCALAR"
        },
        {
            "bufferView" : 33,
            "componentType" : 5126,
            "count" : 41,
            "type" : "VEC3"
        },
        {
            "bufferView" : 34,
            "componentType" : 5126,
            "count" : 61,
            "max" : [
                3.75
            ],
            "min" : [
                1.25
            ],
            "type" : "SCALAR"
        },
        {
            "bufferView" : 35,
            "componentType" : 5126,
            "count" : 61,
            "type" : "VEC3"
        },
        {
            "bufferView" : 36,
            "componentType" : 5126,
            "count" : 61,
            "type" : "VEC4"
        }
    ],
    "bufferViews" : [
        {
            "buffer" : 0,
            "byteLength" : 2208,
            "byteOffset" : 0
        },
        {
            "buffer" : 0,
            "byteLength" : 2208,
            "byteOffset" : 2208
        },
        {
            "buffer" : 0,
            "byteLength" : 1472,
            "byteOffset" : 4416
        },
        {
            "buffer" : 0,
            "byteLength" : 576,
            "byteOffset" : 5888
        },
        {
            "buffer" : 0,
            "byteLength" : 162660,
            "byteOffset" : 6464
        },
        {
            "buffer" : 0,
            "byteLength" : 1152,
            "byteOffset" : 169124
        },
        {
            "buffer" : 0,
            "byteLength" : 1152,
            "byteOffset" : 170276
        },
        {
            "buffer" : 0,
            "byteLength" : 768,
            "byteOffset" : 171428
        },
        {
            "buffer" : 0,
            "byteLength" : 360,
            "byteOffset" : 172196
        },
        {
            "buffer" : 0,
            "byteLength" : 1728,
            "byteOffset" : 172556
        },
        {
            "buffer" : 0,
            "byteLength" : 1728,
            "byteOffset" : 174284
        },
        {
            "buffer" : 0,
            "byteLength" : 1152,
            "byteOffset" : 176012
        },
        {
            "buffer" : 0,
            "byteLength" : 552,
            "byteOffset" : 177164
        },
        {
            "buffer" : 0,
            "byteLength" : 1728,
            "byteOffset" : 177716
        },
        {
            "buffer" : 0,
            "byteLength" : 1728,
            "byteOffset" : 179444
        },
        {
            "buffer" : 0,
            "byteLength" : 1152,
            "byteOffset" : 181172
        },
        {
            "buffer" : 0,
            "byteLength" : 552,
            "byteOffset" : 182324
        },
        {
            "buffer" : 0,
            "byteLength" : 1728,
            "byteOffset" : 182876
        },
        {
            "buffer" : 0,
            "byteLength" : 1728,
            "byteOffset" : 184604
        },
        {
            "buffer" : 0,
            "byteLength" : 1152,
            "byteOffset" : 186332
        },
        {
            "buffer" : 0,
            "byteLength" : 2400,
            "byteOffset" : 187484
        },
        {
            "buffer" : 0,
            "byteLength" : 2400,
            "byteOffset" : 189884
        },
        {
            "buffer" : 0,
            "byteLength" : 1600,
            "byteOffset" : 192284
        },
        {
            "buffer" : 0,
            "byteLength" : 600,
            "byteOffset" : 193884
        },
        {
            "buffer" : 0,
            "byteLength" : 1728,
            "byteOffset" : 194484
        },
        {
            "buffer" : 0,
            "byteLength" : 1728,
            "byteOffset" : 196212
        },
        {
            "buffer" : 0,
            "byteLength" : 1152,
            "byteOffset" : 197940
        },
        {
            "buffer" : 0,
            "byteLength" : 432,
            "byteOffset" : 199092
        },
        {
            "buffer" : 0,
            "byteLength" : 400,
            "byteOffset" : 199524
        },
        {
            "buffer" : 0,
            "byteLength" : 1600,
            "byteOffset" : 199924
        },
        {
            "buffer" : 0,
            "byteLength" : 1200,
            "byteOffset" : 201524
        },
        {
            "buffer" : 0,
            "byteLength" : 1600,
            "byteOffset" : 202724
        },
        {
            "buffer" : 0,
            "byteLength" : 164,
            "byteOffset" : 204324
        },
        {
            "buffer" : 0,
            "byteLength" : 492,
            "byteOffset" : 204488
        },
        {
            "buffer" : 0,
            "byteLength" : 244,
            "byteOffset" : 204980
        },
        {
            "buffer" : 0,
            "byteLength" : 732,
            "byteOffset" : 205224
        },
        {
            "buffer" : 0,
            "byteLength" : 976,
            "byteOffset" : 205956
        }
    ],
    "samplers" : [
        {
            "magFilter" : 9729,
            "minFilter" : 9987
        }
    ],
    "buffers" : [
        {
            "byteLength" : 206932,
            "uri" : "data:application/octet-stream;base64,"
        }
    ]
}
