{
    "asset" : {
        "generator" : "Khronos glTF Blender I/O v3.2.43",
        "version" : "2.0"
    },
    "scene" : 0,
    "scenes" : [
        {
            "name" : "Scene",
            "nodes" : [
                0,
                1,
                2
            ]
        }
    ],
    "nodes" : [
        {
            "mesh" : 0,
            "name" : "liq_2",
            "translation" : [
                0,
                1.519423246383667,
                0
            ]
        },
        {
            "mesh" : 1,
            "name" : "liq_3",
            "translation" : [
                0,
                2.430560350418091,
                0
            ]
        },
        {
            "mesh" : 2,
            "name" : "liq_1",
            "translation" : [
                0,
                0.4149966239929199,
                0
            ]
        }
    ],
    "materials" : [
        {
            "doubleSided" : true,
            "emissiveFactor" : [
                1,
                1,
                0.015389998617321266
            ],
            "name" : "orange",
            "pbrMetallicRoughness" : {
                "baseColorFactor" : [
                    0.8000000715255737,
                    0.2832582890987396,
                    0.0025654237251728773,
                    1
                ],
                "metallicFactor" : 0,
                "roughnessFactor" : 0.5
            }
        },
        {
            "emissiveFactor" : [
                0.800000011920929,
                0.03654100000858307,
                0.028903000056743622
            ],
            "name" : "red",
            "pbrMetallicRoughness" : {
                "baseColorFactor" : [
                    0.8000000715255737,
                    0.03654148802161217,
                    0.028903309255838394,
                    1
                ],
                "metallicFactor" : 0,
                "roughnessFactor" : 0.5
            }
        },
        {
            "doubleSided" : true,
            "emissiveFactor" : [
                0.87111496925354,
                0.9259591102600098,
                0.9792386293411255
            ],
            "name" : "white",
            "pbrMetallicRoughness" : {
                "baseColorFactor" : [
                    0.5604417324066162,
                    0.6912663578987122,
                    0.8000000715255737,
                    1
                ],
                "metallicFactor" : 0,
                "roughnessFactor" : 0.5
            }
        }
    ],
    "meshes" : [
        {
            "name" : "Cylinder.004",
            "primitives" : [
                {
                    "attributes" : {
                        "POSITION" : 0,
                        "NORMAL" : 1,
                        "TEXCOORD_0" : 2
                    },
                    "indices" : 3,
                    "material" : 0
                }
            ]
        },
        {
            "name" : "Cylinder.005",
            "primitives" : [
                {
                    "attributes" : {
                        "POSITION" : 4,
                        "NORMAL" : 5,
                        "TEXCOORD_0" : 6
                    },
                    "indices" : 7,
                    "material" : 1
                }
            ]
        },
        {
            "name" : "Cylinder.006",
            "primitives" : [
                {
                    "attributes" : {
                        "POSITION" : 8,
                        "NORMAL" : 9,
                        "TEXCOORD_0" : 10
                    },
                    "indices" : 3,
                    "material" : 2
                }
            ]
        }
    ],
    "accessors" : [
        {
            "bufferView" : 0,
            "componentType" : 5126,
            "count" : 144,
            "max" : [
                1,
                0.7868996262550354,
                1
            ],
            "min" : [
                -1,
                -0.7868996262550354,
                -1
            ],
            "type" : "VEC3"
        },
        {
            "bufferView" : 1,
            "componentType" : 5126,
            "count" : 144,
            "type" : "VEC3"
        },
        {
            "bufferView" : 2,
            "componentType" : 5126,
            "count" : 144,
            "type" : "VEC2"
        },
        {
            "bufferView" : 3,
            "componentType" : 5123,
            "count" : 276,
            "type" : "SCALAR"
        },
        {
            "bufferView" : 4,
            "componentType" : 5126,
            "count" : 144,
            "max" : [
                1,
                0.12006234377622604,
                1
            ],
            "min" : [
                -1,
                -0.12006234377622604,
                -1
            ],
            "type" : "VEC3"
        },
        {
            "bufferView" : 5,
            "componentType" : 5126,
            "count" : 144,
            "type" : "VEC3"
        },
        {
            "bufferView" : 6,
            "componentType" : 5126,
            "count" : 144,
            "type" : "VEC2"
        },
        {
            "bufferView" : 7,
            "componentType" : 5123,
            "count" : 276,
            "type" : "SCALAR"
        },
        {
            "bufferView" : 8,
            "componentType" : 5126,
            "count" : 144,
            "max" : [
                1,
                0.308836430311203,
                1
            ],
            "min" : [
                -1,
                -0.308836430311203,
                -1
            ],
            "type" : "VEC3"
        },
        {
            "bufferView" : 9,
            "componentType" : 5126,
            "count" : 144,
            "type" : "VEC3"
        },
        {
            "bufferView" : 10,
            "componentType" : 5126,
            "count" : 144,
            "type" : "VEC2"
        }
    ],
    "bufferViews" : [
        {
            "buffer" : 0,
            "byteLength" : 1728,
            "byteOffset" : 0
        },
        {
            "buffer" : 0,
            "byteLength" : 1728,
            "byteOffset" : 1728
        },
        {
            "buffer" : 0,
            "byteLength" : 1152,
            "byteOffset" : 3456
        },
        {
            "buffer" : 0,
            "byteLength" : 552,
            "byteOffset" : 4608
        },
        {
            "buffer" : 0,
            "byteLength" : 1728,
            "byteOffset" : 5160
        },
        {
            "buffer" : 0,
            "byteLength" : 1728,
            "byteOffset" : 6888
        },
        {
            "buffer" : 0,
            "byteLength" : 1152,
            "byteOffset" : 8616
        },
        {
            "buffer" : 0,
            "byteLength" : 552,
            "byteOffset" : 9768
        },
        {
            "buffer" : 0,
            "byteLength" : 1728,
            "byteOffset" : 10320
        },
        {
            "buffer" : 0,
            "byteLength" : 1728,
            "byteOffset" : 12048
        },
        {
            "buffer" : 0,
            "byteLength" : 1152,
            "byteOffset" : 13776
        }
    ],
    "buffers" : [
        {
            "byteLength" : 14928,
            "uri" : "data:application/octet-stream;base64,"
        }
    ]
}
